<svg width="120" height="32" viewBox="0 0 120 32" fill="none" xmlns="http://www.w3.org/2000/svg">
<g clip-path="url(#clip0_1338_4493)">
<path d="M71.3242 0.130169C71.8683 2.18576 72.2141 4.05755 72.8293 6.20957C73.1023 5.74554 74.9733 0.50742 80.8859 0.255518C82.9802 0.166328 85.078 0.0813559 87.2499 0V7.32143C86.8283 7.32143 77.5838 7.35759 77.1603 7.40339C75.529 7.58177 73.5464 8.70388 73.5464 14.5736C73.5464 19.881 73.5142 31.2009 73.5142 31.6324H66.1177V0.130169H71.3235H71.3242Z" fill="#1B4F30"/>
<path d="M7.39778 16.1886V31.633H0V0.133183H7.39353V15.263C13.7163 13.9878 15.5084 9.53491 16.021 8.51586C17.3035 5.9655 19.9262 0.34049 20.0305 0.133183H28.0829C27.998 0.363992 24.8821 7.0165 23.3903 10.1611C22.368 12.3161 20.8629 14.0191 18.6601 15.046C18.0837 15.3148 17.4692 15.504 16.7757 15.7662C17.6396 15.9584 18.4004 16.0844 19.1345 16.2995C21.0898 16.8732 22.507 18.1225 23.3587 19.9292C24.5648 22.4874 28.439 31.3413 28.5561 31.633H20.4764C20.2326 31.0292 17.3157 23.5492 16.0556 20.471C14.1379 15.7855 8.6451 16.1886 7.39838 16.1886H7.39778Z" fill="#1B4F30"/>
<path d="M120 0.133183C119.915 0.36339 113.633 22.4844 112.144 25.6307C111.123 27.7864 109.614 29.4864 107.411 30.5151C106.839 30.7875 105.646 31.633 98.7809 31.633H91.2612V0.133183H98.4497V28.4902C104.089 27.2753 104.558 26.1436 111.943 0.133183H119.999H120Z" fill="#1B4F30"/>
<path d="M53.1386 25.5711C53.1028 25.6783 52.8747 26.2822 52.7988 26.4437C52.2844 27.5363 51.5455 28.5379 50.6549 29.358C49.8067 30.1391 48.8172 30.7676 47.7507 31.2118C46.5428 31.7143 45.2433 31.9626 43.9372 31.9964C42.5891 32.0313 41.2259 31.8451 39.9434 31.4281C38.7495 31.04 37.6229 30.4434 36.6468 29.6569C35.6822 28.8802 34.8729 27.9202 34.2625 26.8463C34.0259 26.4304 33.8142 26.0008 33.6219 25.5626C33.1244 24.4321 32.7756 23.2407 32.5499 22.0288C32.502 21.7721 32.0251 19.5399 32.0251 16.4044C32.0251 11.2615 32.0015 0.141018 32.0015 0.141018H39.4053C39.4053 0.141018 39.3719 11.6984 39.4338 16.9395C39.4478 18.2545 39.6371 19.6026 39.9683 20.8844C40.4221 22.6453 41.1689 23.7728 42.1572 24.458C43.1734 25.1673 44.4407 25.4114 45.9113 25.4204C47.7125 25.4108 49.2067 25.045 50.3036 23.9132C50.9752 23.2226 51.4951 22.2415 51.8494 20.8844C52.18 19.6026 52.3693 18.2545 52.3881 16.9395C52.4494 11.6984 52.4166 0.141018 52.4166 0.141018H59.6427V0.972054C59.6427 3.65861 59.6524 6.33974 59.6524 9.02629V31.633H54.6389C54.5206 31.187 53.6221 27.2573 53.1398 25.5711" fill="#1B4F30"/>
</g>
<defs>
<clipPath id="clip0_1338_4493">
<rect width="120" height="32" fill="white"/>
</clipPath>
</defs>
</svg>
